<?xml version="1.0" encoding="UTF-8"?>
<svg id="Layer_1" xmlns="http://www.w3.org/2000/svg" version="1.1" xmlns:xlink="http://www.w3.org/1999/xlink" viewBox="0 0 1906.67 1906.67">
  <!-- Generator: Adobe Illustrator 29.8.1, SVG Export Plug-In . SVG Version: 2.1.1 Build 2)  -->
  <defs>
    <style>
      .st0 {
        fill: none;
      }

      .st1 {
        filter: url(#outer-glow-1);
      }

      .st2 {
        fill: #ffc7d0;
        stroke: #875e65;
        stroke-miterlimit: 10;
        stroke-width: 3px;
      }

      .st3 {
        clip-path: url(#clippath);
      }
    </style>
    <filter id="outer-glow-1" x="-255.75" y="-310.75" width="2342" height="2342" filterUnits="userSpaceOnUse">
      <feOffset dx="0" dy="0"/>
      <feGaussianBlur result="blur" stdDeviation="56.69"/>
      <feFlood flood-color="#fff" flood-opacity=".8"/>
      <feComposite in2="blur" operator="in"/>
      <feComposite in="SourceGraphic"/>
    </filter>
    <clipPath id="clippath">
      <rect class="st0" x="-85.32" y="-140.15" width="2000" height="2000"/>
    </clipPath>
  </defs>
  <rect class="st2" x="12" y="10.67" width="1872" height="1872" rx="202" ry="202"/>
  <g class="st1">
    <g class="st3">
      <image width="5000" height="5000" transform="translate(-85.32 -140.15) scale(.4)" xlink:href="12_logo-02_small-02-1.png"/>
    </g>
    <polygon points="743.09 678.88 743.09 1368.66 704.29 1368.66 704.29 746.99 663.34 746.99 716.36 678.88 743.09 678.88"/>
    <path d="M868.04,1368.66c13.22-89.1,43.61-151.39,91.18-186.89,47.57-35.5,89.6-66.97,126.1-94.41,36.5-27.45,70.42-58.27,101.74-92.47,31.33-34.2,46.99-74.01,46.99-119.42s-16.09-84.64-48.28-116.83c-32.19-32.19-71.13-48.29-116.83-48.29s-83.92,16.1-116.4,48.29c-27.59,27.59-43.4,60.5-47.42,98.73l-39.23-14.23c6.61-43.11,25.87-80.76,57.77-112.95,40.24-40.53,88.67-60.79,145.29-60.79s105.41,20.12,145.5,60.36c40.09,40.24,60.14,88.81,60.14,145.72s-19.69,106.05-59.06,148.3c-26.73,29.03-58.34,57.19-94.85,84.5-36.5,27.3-77.6,58.06-123.3,92.26-45.7,34.2-74.15,77.31-85.36,129.33h362.57v38.8h-406.54Z"/>
    <polygon points="313.98 1451.94 313.98 1590.22 305.64 1590.22 305.64 1443.6 397.28 1443.6 397.28 1590.22 389.03 1590.22 389.03 1451.94 313.98 1451.94"/>
    <path d="M495.36,1451.94v79.08h24.93c10.87,0,20.18-3.86,27.9-11.59,7.73-7.73,11.59-17.06,11.59-28s-3.86-20.25-11.59-27.95c-7.73-7.7-17.03-11.55-27.9-11.55h-24.93ZM495.36,1539.36v50.86h-8.25v-146.62h38.49c11.18,1.53,20.68,6.2,28.5,14.02,9.35,9.35,14.02,20.62,14.02,33.81s-4.67,24.56-14.02,33.91c-9.35,9.35-20.62,14.02-33.81,14.02h-24.93Z"/>
    <polygon points="766.91 1443.6 766.91 1590.22 758.66 1590.22 758.66 1456.89 663.45 1590.22 650.71 1590.22 650.71 1443.6 659.05 1443.6 659.05 1580.14 756.46 1443.6 766.91 1443.6"/>
    <polygon points="866.54 1524.52 866.54 1590.22 858.29 1590.22 858.29 1443.6 866.54 1443.6 866.54 1516.27 927.94 1516.27 927.94 1443.6 936.19 1443.6 936.19 1590.22 927.94 1590.22 927.94 1524.52 866.54 1524.52"/>
    <path d="M1037.2,1590.22h-10.17l33.81-52.14c-8.37-2.02-15.79-6.26-22.27-12.74-9.35-9.35-14.02-20.65-14.02-33.91s4.67-24.41,14.02-33.81c7.82-7.82,17.32-12.49,28.5-14.02h38.49v146.62h-8.34v-50.77h-24.83c-.86,0-1.71-.03-2.57-.09l-32.62,50.86ZM1072.38,1452.03c-10.88,0-20.18,3.83-27.9,11.5-7.73,7.67-11.59,16.97-11.59,27.9s3.86,20.34,11.59,28.04,17.03,11.55,27.9,11.55h24.83v-78.99h-24.83Z"/>
    <polygon points="1232.13 1451.85 1232.13 1590.22 1223.89 1590.22 1223.89 1451.85 1186.77 1451.85 1186.77 1443.6 1269.25 1443.6 1269.25 1451.85 1232.13 1451.85"/>
    <polygon points="1467.58 1443.6 1467.58 1590.22 1459.33 1590.22 1459.33 1456.89 1364.12 1590.22 1351.38 1590.22 1351.38 1443.6 1359.72 1443.6 1359.72 1580.14 1457.13 1443.6 1467.58 1443.6"/>
    <polygon points="1632.27 1443.6 1632.27 1451.85 1567.21 1451.85 1567.21 1512.79 1632.27 1512.79 1632.27 1521.04 1567.21 1521.04 1567.21 1581.97 1632.27 1581.97 1632.27 1590.22 1558.96 1590.22 1558.96 1443.6 1632.27 1443.6"/>
  </g>
</svg>