<?xml version="1.0" encoding="UTF-8"?>
<svg id="Layer_1" xmlns="http://www.w3.org/2000/svg" version="1.1" xmlns:xlink="http://www.w3.org/1999/xlink" viewBox="0 0 1906.67 1906.67">
  <!-- Generator: Adobe Illustrator 29.8.1, SVG Export Plug-In . SVG Version: 2.1.1 Build 2)  -->
  <defs>
    <style>
      .st0 {
        fill: #fff;
      }

      .st1 {
        fill: #213e75;
      }
    </style>
    <filter id="outer-glow-1" x="-2182.41" y="-310.75" width="2342" height="2342" filterUnits="userSpaceOnUse">
      <feOffset dx="0" dy="0"/>
      <feGaussianBlur result="blur" stdDeviation="56.69"/>
      <feFlood flood-color="#fff" flood-opacity=".8"/>
      <feComposite in2="blur" operator="in"/>
      <feComposite in="SourceGraphic"/>
    </filter>
  </defs>
  <rect class="st1" x="17.33" y="14.33" width="1872" height="1872" rx="202" ry="202"/>
  <g>
    <g>
      <path class="st0" d="M331.79,1114.74c-.85,3.52-2.03,7.17-3.52,10.91-3.44,8.39-6.34,25.1-8.68,50.2-2.36,25.07-3.52,45.72-3.52,61.92,0,6.98.23,11.79.7,14.46.46,2.65,1.64,6.56,3.53,11.74,2.65,7.49,4,13.72,4,18.66,0,3.44-.69,7.21-2.01,11.26-.23.48-.62.71-1.18.71s-2.26-.44-5.16-1.29c-2.98-.87-5.13-1.29-6.46-1.29-3.92,0-6.77-.81-8.57-2.42-1.8-1.59-3.21-5.38-4.23-11.32-1.02-5.95-1.51-14.67-1.51-26.18,0-14.08,1.76-45.52,5.28-94.27-9.01,12.51-19.28,25.89-30.84,40.09-11.53,14.21-19.42,23.17-23.65,26.95-5.01,4.22-8.72,10.82-11.14,19.83-1.88,7.13-5.13,10.68-9.76,10.68-.31,0-2.38-.85-6.23-2.52-3.84-1.67-6.88-4.41-9.16-8.16-2.25-3.77-10.91-20.62-25.94-50.61l-22.06-44.74c-8.47,48.85-12.7,83.74-12.7,104.62,0,5.07.25,9.74.71,13.96l.35,2.36v.22c0,5.1-1.08,10.22-3.23,15.39-2.15,5.16-4,7.83-5.57,7.97h-.48c-5.24,0-9.61-2.04-13.09-6.15-3.48-4.12-5.22-7.19-5.22-9.21,0-.79.17-1.53.48-2.24,2.73-8.45,5.36-24.98,7.86-49.55,2.65-26.37,5.32-45.44,7.97-57.19,4.54-20.5,6.82-35.06,6.82-43.67,0-13.69,2.15-20.54,6.46-20.54,2.43,0,6.38,1.43,11.85,4.29,5.49,2.85,8.86,5.75,10.17,8.69,1.29,2.95,3.34,8.47,6.15,16.61,2.28,6.26,7.66,19.02,16.16,38.21,8.49,19.21,15.95,34.23,22.36,45.04,1.11,1.25,2.2,1.86,3.3,1.86.77,0,1.41-.12,1.86-.41.48-.27,3.46-3.61,8.92-10.03l21.38-24.79c8.76-9.93,16.83-19.98,24.25-30.18,7.39-10.17,13.35-19.94,17.9-29.34,7.67-15.35,13.41-23.01,17.27-23.01,1.94,0,5.46,1.04,10.55,3.11,5.07,2.07,7.62,5.19,7.62,9.34"/>
      <path class="st0" d="M509.08,1127.06c0,2.19-1.33,4.47-3.94,6.82-2.63,2.33-5.24,3.52-7.8,3.52-2.82,0-5.57-.23-8.22-.71-2.67-.39-5.28-.58-7.87-.58-3.92,0-8.01.31-12.32.94-4.31.7-8.3,1.06-11.99,1.06-2.57,0-5.43.2-8.55.58-3.15.48-6.47.91-9.99,1.31-9.24,1.1-15.35,2.29-18.33,3.64-2.96,1.33-4.72,3.75-5.28,7.28-.71,4.69-2.07,10.76-4.1,18.2-4.23,15.27-6.38,24.9-6.47,28.87,9.78,0,21.88-2.21,36.29-6.69,10.01-2.9,18.83-4.36,26.4-4.36,2.51,0,4.91,1.11,7.23,3.3,2.3,2.19,3.47,5.48,3.47,9.86s-2.43,7.45-7.28,9.4l-13.62,1.76c-15.58,1.88-28.83,4.29-39.75,7.23-10.91,2.92-16.77,5.22-17.56,6.86-1.25,1.57-2.75,7.66-4.51,18.27-1.75,10.6-2.63,17.66-2.63,21.18,0,4.32,2.22,6.47,6.69,6.47,3.61,0,8.06-.54,13.38-1.63l33.47-6.11c23.32-4.4,36.6-6.59,39.8-6.59,2.81,0,6.19.81,10.15,2.42,3.96,1.59,5.92,4.95,5.92,10.03,0,3.14-1.31,5.67-3.92,7.63-2.63,1.95-7.06,3.55-13.27,4.74-6.23,1.23-15.24,1.82-27.07,1.82-14.86,0-29.82,2.11-44.85,6.34-5.16,1.5-11.45,2.59-18.89,3.29-1.8.17-3.65.61-5.53,1.31-1.86.71-3.96,1.06-6.22,1.06-1.79-.33-3.42-.56-4.82-.7-5.01-.4-7.51-5.62-7.51-15.62,0-4.47,1.39-12.18,4.12-23.13l10.33-58.13c.63-3.75,1.46-7.97,2.47-12.68,4.92-22.53,7.38-36.68,7.38-42.37,0-2.28-.79-4.51-2.33-6.72-3.07-4.06-4.58-6.87-4.58-8.44,0-2.03.71-3.92,2.11-5.64,1.42-1.71,3.36-2.58,5.86-2.58,1.19,0,1.99.2,2.47.6,1.96,1.71,4.96,2.57,9.05,2.57,9.46,0,32.51-2.07,69.15-6.22,7.97-.87,12.72-1.29,14.2-1.29,8.14,0,13.38.86,15.75,2.57,2.34,1.72,3.52,4.74,3.52,9.05v.23Z"/>
      <path class="st0" d="M699.86,1110.74l-.35,5.76c-.4,1.57-2.51,11.82-6.34,30.75l-.71,3.07c-.7,5.01-2.54,24.54-5.51,58.59l-3.06,30.88c-.46,5.07-.81,12.13-1.06,21.12-.54,15.66-1.43,24.5-2.63,26.53-1.23,2.05-3.21,3.9-6.01,5.59-2.77,1.67-5.4,2.53-7.9,2.53-2.82,0-5.01-1.68-6.59-4.99-1.55-3.34-2.34-7.41-2.34-12.28,0-5.72,1.63-18.91,4.93-39.56,2.27-14.17,3.75-30.82,4.44-49.91-.37-2.59-1.5-3.96-3.39-4.11-2.11,0-8.81,3.4-20.07,10.22-13.09,7.99-25,13.48-35.77,16.5-10.74,3-19.29,4.51-25.63,4.51-10.33,0-18.02-3.31-23.03-9.92-5.01-6.63-7.49-20.57-7.49-41.86,0-9.49,1.49-21.56,4.51-36.22,3-14.68,6.77-23.11,11.26-25.3,4.49-2.2,7.89-3.3,10.16-3.3,1.88,0,3.56,1.02,5.05,3.07,1.48,2.02,2.23,4.92,2.23,8.67,0,.79-2.11,8.58-6.34,23.36-4.31,14.87-6.46,26.12-6.46,33.7,0,12.05.79,19.67,2.34,22.84,1.57,3.17,6.31,4.76,14.2,4.76,5.09,0,12.41-1.57,21.98-4.7,9.55-3.12,19.06-7.31,28.51-12.57,9.47-5.24,16.75-10.3,21.85-15.14,5.08-4.84,8.18-8.28,9.28-10.28,1.08-1.98,1.99-6.88,2.69-14.62.15-2.25.36-4.27.59-5.98.79-6.42,1.18-12.58,1.18-18.44,0-2.42,1.61-5.36,4.86-8.8,3.26-3.46,6.18-5.17,8.76-5.17,2.88,0,5.59,1.04,8.1,3.1,2.5,2.09,3.75,4.62,3.75,7.58"/>
      <path class="st0" d="M726.63,1141.27c-.87-1.55-1.31-3.52-1.31-5.86,0-3.52,1.29-5.92,3.84-7.17,2.52-1.27,10.15-1.96,22.81-2.11,15.58-.08,29.58-.64,41.98-1.69,12.41-1.06,31.52-3.36,57.37-6.88,9.78-1.33,19.1-1.99,27.95-1.99,4.44,0,8.69.27,12.73.81,4.05.56,6.9,1.08,8.58,1.59,1.67.5,3.02,1.9,4.04,4.23,1.02,2.3,1.53,4.09,1.53,5.34,0,5.55-1.95,8.33-5.86,8.33-2.59,0-6.11-.23-10.58-.71-4.53-.39-10.66-.58-18.44-.58s-17.66.56-29.05,1.69c-11.39,1.14-17.71,3.01-18.95,5.57-1.27,2.59-3.32,17.85-6.17,45.81-2.86,27.94-4.3,48.74-4.3,62.46,0,6.34.98,13.64,2.94,21.95.32,1.55.46,2.51.46,2.82,0,3.44-.93,6.55-2.81,9.34-1.86,2.78-4.15,4.17-6.8,4.17-4.08,0-7.45-1.97-10.17-5.88-2.69-3.92-4.04-14.87-4.04-32.87,0-17.06,3.23-50.37,9.73-99.92.31-2.65.48-4.02.48-4.11,0-2.67-1.45-4-4.35-4-4.7,0-13.67.59-26.89,1.76-13.23,1.27-22.65,1.88-28.3,1.88-8.45,0-13.92-1.33-16.42-4"/>
      <path class="st0" d="M997.94,1117.9l1.76,5.16c3.38,11.11,6.07,19.03,8.09,23.73,2.43,5.86,6.11,15.68,11.04,29.47,9.55,26.67,17.94,46.47,25.12,59.33,7.21,12.89,12.76,21,16.68,24.38,6.97,6.26,11.6,10.93,13.9,14.02,2.31,3.1,3.48,5.98,3.48,8.63,0,4-1.17,7.43-3.48,10.33-2.3,2.9-5.03,4.36-8.16,4.36-5.86,0-12.97-5.7-21.31-17.09-8.33-11.39-15.39-23.11-21.19-35.16-7.91-16.36-12.49-24.55-13.73-24.55-4.08,0-12.07,1.04-24.02,3.11-11.93,2.07-24.09,4.84-36.45,8.28-7.91,2.2-13.24,3.3-15.97,3.3-1.97,0-3.61-.29-4.93-.83-1.41-.56-2.67-.83-3.77-.83-2.82,0-8.64,8.42-17.48,25.24-8.93,16.83-15.93,25.24-21.02,25.24-2.42,0-5.22-1.31-8.39-3.94-3.17-2.63-4.76-5.22-4.76-7.81,0-3.29,4.45-11.07,13.38-23.36,14.87-20.75,25.72-36.47,32.53-47.19,6.8-10.73,15.72-26.47,26.76-47.2,19.48-36.64,32.6-54.94,39.33-54.94,3.61,0,6.53.54,8.76,1.63,2.23,1.11,3.63,2.16,4.17,3.17.56,1.02.83,2.86.83,5.51,0,3.21-.4,5.88-1.19,7.99M1005.82,1201.26c-.71-1.18-5.2-13.6-13.5-37.34-6.96-19.79-10.95-30.01-11.97-30.63-3.85,8.59-11.26,22.43-22.26,41.5-10.99,19.06-18.16,32.06-21.54,39.04,1.19-1.26,5.68-2.31,13.5-3.17,5.32-.56,10.45-1.31,15.39-2.23,21.21-4.23,34.66-6.61,40.38-7.17"/>
      <path class="st0" d="M1072.87,1141.27c-.87-1.55-1.31-3.52-1.31-5.86,0-3.52,1.29-5.92,3.84-7.17,2.52-1.27,10.15-1.96,22.81-2.11,15.58-.08,29.58-.64,42.01-1.69,12.42-1.06,31.47-3.36,57.32-6.88,9.78-1.33,19.14-1.99,27.92-1.99,4.47,0,8.78.27,12.76.81,4.07.56,6.88,1.08,8.62,1.59,1.65.5,2.98,1.9,4.06,4.23,1,2.3,1.49,4.09,1.49,5.34,0,5.55-1.99,8.33-5.88,8.33-2.57,0-6.13-.23-10.52-.71-4.55-.39-10.68-.58-18.48-.58s-17.64.56-29.07,1.69c-11.35,1.14-17.64,3.01-18.97,5.57-1.25,2.59-3.32,17.85-6.13,45.81-2.9,27.94-4.32,48.74-4.32,62.46,0,6.34,1,13.64,2.99,21.95.24,1.55.41,2.51.41,2.82,0,3.44-.91,6.55-2.82,9.34-1.81,2.78-4.14,4.17-6.79,4.17-4.06,0-7.45-1.97-10.11-5.88-2.73-3.92-4.06-14.87-4.06-32.87,0-17.06,3.23-50.37,9.69-99.92.33-2.65.5-4.02.5-4.11,0-2.67-1.49-4-4.31-4-4.72,0-13.67.59-26.93,1.76-13.24,1.27-22.65,1.88-28.3,1.88-8.45,0-13.92-1.33-16.42-4"/>
      <path class="st0" d="M1391.05,1127.06c0,2.19-1.33,4.47-3.94,6.82-2.61,2.33-5.21,3.52-7.82,3.52-2.82,0-5.55-.23-8.2-.71-2.65-.39-5.3-.58-7.87-.58-3.94,0-8.03.31-12.34.94-4.31.7-8.28,1.06-11.97,1.06-2.57,0-5.43.2-8.58.58-3.1.48-6.46.91-9.98,1.31-9.24,1.1-15.33,2.29-18.31,3.64-2.98,1.33-4.72,3.75-5.26,7.28-.71,4.69-2.11,10.76-4.14,18.2-4.23,15.27-6.38,24.9-6.47,28.87,9.82,0,21.92-2.21,36.29-6.69,10.03-2.9,18.85-4.36,26.42-4.36,2.53,0,4.93,1.11,7.21,3.3,2.32,2.19,3.49,5.48,3.49,9.86s-2.41,7.45-7.3,9.4l-13.58,1.76c-15.62,1.88-28.83,4.29-39.77,7.23-10.93,2.92-16.77,5.22-17.56,6.86-1.25,1.57-2.73,7.66-4.51,18.27-1.73,10.6-2.65,17.66-2.65,21.18,0,4.32,2.24,6.47,6.71,6.47,3.61,0,8.08-.54,13.38-1.63l33.47-6.11c23.32-4.4,36.57-6.59,39.8-6.59,2.81,0,6.21.81,10.15,2.42,3.94,1.59,5.92,4.95,5.92,10.03,0,3.14-1.29,5.67-3.94,7.63-2.61,1.95-7.04,3.55-13.26,4.74-6.21,1.23-15.24,1.82-27.04,1.82-14.92,0-29.83,2.11-44.86,6.34-5.18,1.5-11.47,2.59-18.94,3.29-1.77.17-3.64.61-5.5,1.31-1.86.71-3.94,1.06-6.22,1.06-1.82-.33-3.39-.56-4.8-.7-5.01-.4-7.53-5.62-7.53-15.62,0-4.47,1.37-12.18,4.1-23.13l10.35-58.13c.63-3.75,1.46-7.97,2.44-12.68,4.93-22.53,7.41-36.68,7.41-42.37,0-2.28-.79-4.51-2.35-6.72-3.03-4.06-4.56-6.87-4.56-8.44,0-2.03.71-3.92,2.11-5.64,1.42-1.71,3.36-2.58,5.88-2.58,1.17,0,1.99.2,2.45.6,1.94,1.71,4.96,2.57,9.03,2.57,9.48,0,32.55-2.07,69.17-6.22,7.99-.87,12.72-1.29,14.21-1.29,8.11,0,13.37.86,15.74,2.57,2.31,1.72,3.52,4.74,3.52,9.05v.23Z"/>
      <path class="st0" d="M1517.38,1146.55h-.25c-3.19,0-6.34,3.38-9.4,10.11-2.24,4.31-6.76,12.05-13.5,23.24-7.25,12.13-12.22,20.7-14.91,25.71-10.48,19.65-21.96,39.29-34.38,58.94l-2.69,4.45c-10.89,18.16-19.01,27.26-24.44,27.26-7.49,0-11.26-3.86-11.26-11.52,0-6.11,4.76-14.64,14.33-25.59,7.33-8.45,21.25-30.09,41.67-64.93,20.41-34.83,35.74-62.1,45.88-81.84,1.91-3.35,4.4-5.03,7.54-5.03,2.81,0,5.75.63,8.78,1.86,3.06,1.27,5.09,2.63,6.13,4.13,1,1.49,2.27,4.39,3.77,8.68,1.45,4.31,4.15,13.49,7.95,27.61,9.57,33.34,17.81,59.2,24.73,77.6,6.92,18.39,11.85,30.61,14.79,36.64,2.94,6.02,6.5,10.25,10.64,12.67,5.55,3.38,8.32,6.86,8.32,10.46,0,2.11-1.12,4.67-3.4,7.68-2.27,3.02-7.25,4.51-14.91,4.51-1.94,0-3.48-.36-4.51-1.06-1.08-.71-3.1-2.57-6.05-5.57-2.98-3.03-5.63-6.53-7.95-10.5-2.27-4-4.88-9.94-7.74-17.85-2.85-7.91-6.38-18.25-10.6-31-1.81-5.32-3.73-10.64-5.75-15.97l-13.87-44.84c-5.01-16.21-7.95-24.83-8.91-25.84"/>
      <path class="st0" d="M1664.74,1206.09c-2.77,11.04-5.42,34.71-7.99,71.03-.17,1.17-1.16,2.3-2.94,3.4-1.82,1.1-3.57,1.63-5.3,1.63-4.43,0-7.49-1.04-9.16-3.1-1.61-2.07-2.44-5.7-2.44-10.85,0-2.51,1-10.95,3.03-25.37,3.39-23.79,5.25-40.54,5.67-50.24.54-13.85,1.2-26.82,1.98-38.87.54-9.95.84-19.57.84-28.89,0-4.76-.54-8.49-1.53-11.14-1.04-2.5-1.53-4-1.53-4.47,0-2.17,1.69-4.49,5.18-6.92,3.43-2.42,6.83-3.64,10.19-3.64,5.26,0,7.87,3.12,7.87,9.4l.58,13.37c0,4-.58,10.69-1.74,20.07l-3.06,26.3c-.63,2.98-.96,5.65-.96,7.99,0,3.52.67,6.03,1.9,7.51,3.98-1.96,7.99-4.04,12.1-6.23,8.82-4.68,19.34-8.8,31.51-12.33,12.18-3.52,22.66-5.27,31.52-5.27,12.05,0,22.24,4.1,30.53,12.32,8.28,8.22,12.43,17.62,12.43,28.18,0,17.6-7.01,34.29-21,50.07-14,15.77-29.66,27.43-46.97,34.92-17.31,7.51-29.87,11.28-37.69,11.28-3.36,0-6.21-1.14-8.49-3.41-2.32-2.26-3.48-5.12-3.48-8.58,0-3.04.91-5.36,2.77-6.98,1.82-1.59,3.61-2.4,5.34-2.4,1.09,0,2.07.15,2.95.46.91.39,2.27.6,4.1.6,11.01,0,23.48-4.4,37.4-13.16,13.87-8.76,24.85-18.82,32.84-30.17,8.04-11.35,12.06-19.88,12.06-25.59,0-7.22-2.61-13.77-7.83-19.72-5.17-5.96-11.68-8.92-19.42-8.92s-20.21,2.54-37.89,7.68c-17.69,5.13-28.83,11.8-33.35,20.02"/>
      <polygon class="st0" points="133.71 1431.15 133.71 1364.55 135.74 1366.58 108.74 1366.58 108.74 1360.07 166.1 1360.07 166.1 1366.58 139.19 1366.58 141.13 1364.55 141.13 1431.15 133.71 1431.15"/>
      <path class="st0" d="M179.31,1431.14v-71.08h26.6c6.01,0,11.21.98,15.53,2.9,4.34,1.93,7.68,4.7,10,8.33,2.35,3.6,3.5,8.01,3.5,13.15s-1.15,9.3-3.5,12.94c-2.32,3.61-5.66,6.4-10,8.36-4.32,1.96-9.52,2.98-15.53,2.98h-22.44l3.36-3.57v25.98h-7.52ZM186.83,1405.75l-3.36-3.64h22.23c7.11,0,12.51-1.54,16.2-4.62,3.69-3.07,5.54-7.45,5.54-13.05s-1.85-10.11-5.54-13.22c-3.69-3.11-9.09-4.66-16.2-4.66h-22.23l3.36-3.57v42.75Z"/>
      <path class="st0" d="M236.27,1431.14l32.49-71.08h7.42l32.48,71.08h-7.92l-29.85-66.7h3.05l-29.85,66.7h-7.82ZM249.08,1412.15l2.21-6.09h41.34l2.24,6.09h-45.79Z"/>
      <path class="st0" d="M329.8,1431.15h-7.52v-71.08h7.52v71.08ZM374.97,1398.33h-45.99v-6.58h45.99v6.58ZM374.25,1360.07h7.42v71.08h-7.42v-71.08Z"/>
      <path class="st0" d="M436.69,1431.74c-5.33,0-10.28-.87-14.82-2.7-4.52-1.79-8.47-4.29-11.78-7.56-3.3-3.25-5.89-7.06-7.77-11.48-1.85-4.4-2.78-9.19-2.78-14.4s.93-10.01,2.78-14.41c1.88-4.42,4.48-8.23,7.82-11.48,3.36-3.25,7.29-5.77,11.84-7.56,4.54-1.83,9.46-2.7,14.82-2.7s9.99.85,14.51,2.59c4.55,1.72,8.36,4.31,11.48,7.77l-4.75,4.75c-2.93-2.97-6.15-5.1-9.65-6.43-3.52-1.33-7.31-2-11.38-2-4.27,0-8.21.74-11.86,2.2-3.66,1.44-6.84,3.5-9.56,6.2-2.71,2.66-4.83,5.77-6.35,9.34-1.52,3.53-2.27,7.45-2.27,11.72s.75,8.19,2.27,11.72c1.52,3.57,3.64,6.68,6.35,9.34,2.71,2.68,5.89,4.75,9.56,6.19,3.65,1.46,7.6,2.2,11.86,2.2s7.86-.66,11.38-2.03c3.5-1.37,6.72-3.53,9.65-6.51l4.75,4.76c-3.11,3.46-6.93,6.08-11.48,7.84-4.52,1.74-9.41,2.62-14.62,2.62"/>
      <path class="st0" d="M510.43,1426.29c-8.47,0-15.7-1.23-21.74-3.61-6.01-2.42-10.66-5.91-13.9-10.52-3.25-4.59-4.89-10.15-4.89-16.66s1.64-12.04,4.89-16.58c3.25-4.59,7.89-8.08,13.9-10.54,6.04-2.44,13.27-3.64,21.74-3.64h1.81c8.54,0,15.82,1.19,21.84,3.64,6.03,2.46,10.67,5.95,13.92,10.54,3.23,4.54,4.86,10.07,4.86,16.58s-1.6,12.07-4.82,16.66c-3.21,4.62-7.84,8.11-13.85,10.52-6.03,2.38-13.25,3.61-21.62,3.61h-2.13ZM511.24,1420.37h.71c7.1-.07,13.18-1.05,18.23-2.97,5.05-1.93,8.88-4.76,11.53-8.44,2.64-3.7,3.95-8.17,3.95-13.46s-1.33-9.82-4-13.5c-2.67-3.64-6.51-6.44-11.48-8.36-4.98-1.96-10.98-2.9-18.02-2.9h-.91c-7.17,0-13.3.94-18.39,2.83-5.07,1.89-8.97,4.68-11.66,8.39-2.71,3.68-4.08,8.19-4.08,13.54s1.38,9.97,4.13,13.68c2.72,3.68,6.66,6.47,11.77,8.36,5.11,1.89,11.18,2.83,18.23,2.83M507.88,1357.61h7.02v75.98h-7.02v-75.98Z"/>
      <path class="st0" d="M601.08,1431.74c-5.36,0-10.31-.87-14.87-2.7-4.56-1.79-8.54-4.29-11.88-7.58-3.36-3.29-5.96-7.11-7.81-11.48-1.87-4.38-2.81-9.17-2.81-14.39s.94-10,2.81-14.37c1.85-4.34,4.46-8.19,7.81-11.48,3.34-3.29,7.3-5.8,11.82-7.58,4.54-1.83,9.52-2.7,14.92-2.7s10.31.87,14.83,2.7c4.54,1.78,8.48,4.29,11.82,7.56,3.36,3.25,5.96,7.06,7.82,11.48,1.87,4.4,2.79,9.19,2.79,14.4s-.93,10.01-2.79,14.41c-1.87,4.42-4.47,8.23-7.82,11.48-3.34,3.26-7.29,5.77-11.82,7.56-4.52,1.83-9.48,2.7-14.83,2.7M601.08,1425.06c4.27,0,8.21-.74,11.84-2.2,3.62-1.44,6.78-3.5,9.44-6.2,2.67-2.66,4.75-5.77,6.25-9.33,1.49-3.54,2.23-7.46,2.23-11.73s-.74-8.17-2.23-11.72c-1.5-3.56-3.58-6.67-6.25-9.34-2.66-2.68-5.81-4.75-9.44-6.19-3.62-1.46-7.57-2.2-11.84-2.2s-8.21.74-11.88,2.2c-3.65,1.44-6.82,3.5-9.49,6.19-2.68,2.67-4.78,5.78-6.31,9.34-1.52,3.54-2.27,7.46-2.27,11.72s.75,8.09,2.27,11.69c1.53,3.57,3.62,6.71,6.31,9.37,2.67,2.7,5.84,4.76,9.49,6.2,3.66,1.46,7.61,2.2,11.88,2.2"/>
      <path class="st0" d="M656.32,1431.14v-71.08h26.6c6.01,0,11.21.98,15.53,2.9,4.34,1.93,7.68,4.7,10,8.33,2.35,3.6,3.5,8.01,3.5,13.15s-1.15,9.3-3.5,12.94c-2.32,3.61-5.66,6.4-10,8.36-4.32,1.96-9.52,2.98-15.53,2.98h-22.44l3.36-3.57v25.98h-7.52ZM663.84,1405.75l-3.36-3.64h22.23c7.11,0,12.51-1.54,16.2-4.62s5.54-7.45,5.54-13.05-1.85-10.11-5.54-13.22-9.09-4.66-16.2-4.66h-22.23l3.36-3.57v42.75Z"/>
      <polygon class="st0" points="727.29 1431.15 727.29 1360.07 733.48 1360.07 765.98 1415.51 762.72 1415.51 794.91 1360.07 801.12 1360.07 801.12 1431.15 793.89 1431.15 793.89 1371.33 795.62 1371.33 765.98 1422.13 762.43 1422.13 732.58 1371.33 734.5 1371.33 734.5 1431.15 727.29 1431.15"/>
      <path class="st0" d="M814.62,1431.14l32.49-71.08h7.42l32.48,71.08h-7.92l-29.85-66.7h3.05l-29.85,66.7h-7.82ZM827.42,1412.15l2.21-6.09h41.34l2.24,6.09h-45.79Z"/>
      <path class="st0" d="M900.62,1431.14v-71.08h7.41v64.58h42.95v-64.58h7.41v71.08h-57.77ZM962.66,1447.8v-18.68l1.92,2.03h-13.6v-6.5h18.7v23.15h-7.02Z"/>
      <polygon class="st0" points="984.59 1431.15 984.59 1360.07 992.01 1360.07 992.01 1418.97 1037.5 1360.07 1044.3 1360.07 1044.3 1431.15 1036.88 1431.15 1036.88 1372.35 991.39 1431.15 984.59 1431.15"/>
      <path class="st0" d="M1099.45,1431.74c-5.38,0-10.32-.87-14.88-2.7-4.56-1.79-8.54-4.29-11.88-7.58-3.36-3.29-5.96-7.11-7.81-11.48-1.88-4.38-2.81-9.17-2.81-14.39s.93-10,2.81-14.37c1.85-4.34,4.46-8.19,7.81-11.48,3.34-3.29,7.3-5.8,11.82-7.58,4.54-1.83,9.52-2.7,14.94-2.7s10.28.87,14.83,2.7c4.51,1.78,8.47,4.29,11.82,7.56,3.33,3.25,5.95,7.06,7.8,11.48,1.85,4.4,2.81,9.19,2.81,14.4s-.95,10.01-2.81,14.41c-1.85,4.42-4.47,8.23-7.8,11.48-3.36,3.26-7.31,5.77-11.82,7.56-4.55,1.83-9.52,2.7-14.83,2.7M1099.45,1425.06c4.27,0,8.19-.74,11.82-2.2,3.64-1.44,6.79-3.5,9.45-6.2,2.66-2.66,4.75-5.77,6.23-9.33,1.5-3.54,2.23-7.46,2.23-11.73s-.72-8.17-2.23-11.72c-1.48-3.56-3.57-6.67-6.23-9.34-2.66-2.68-5.81-4.75-9.45-6.19-3.64-1.46-7.56-2.2-11.82-2.2s-8.24.74-11.89,2.2c-3.66,1.44-6.82,3.5-9.5,6.19s-4.78,5.78-6.29,9.34c-1.52,3.54-2.27,7.46-2.27,11.72s.75,8.09,2.27,11.69c1.52,3.57,3.62,6.71,6.29,9.37,2.68,2.7,5.84,4.76,9.5,6.2,3.65,1.46,7.62,2.2,11.89,2.2"/>
      <path class="st0" d="M1162.17,1431.15h-7.49v-71.08h7.49v71.08ZM1207.36,1398.33h-45.99v-6.58h45.99v6.58ZM1206.66,1360.07h7.42v71.08h-7.42v-71.08Z"/>
      <path class="st0" d="M1245.53,1431.15h-7.49v-71.08h7.49v71.08ZM1290.72,1398.33h-45.99v-6.58h45.99v6.58ZM1290.02,1360.07h7.42v71.08h-7.42v-71.08Z"/>
      <path class="st0" d="M1310.94,1431.14l32.45-71.08h7.42l32.49,71.08h-7.91l-29.88-66.7h3.05l-29.84,66.7h-7.8ZM1323.7,1412.15l2.24-6.09h41.34l2.21,6.09h-45.79Z"/>
      <path class="st0" d="M1436.62,1431.15v-23.54l2.03,2.03h-23.22c-5.7,0-10.58-.98-14.59-2.97-4.03-1.96-7.1-4.72-9.23-8.36-2.13-3.64-3.19-7.99-3.19-13.05,0-5.42,1.13-10.01,3.44-13.76,2.31-3.77,5.56-6.6,9.8-8.54,4.23-1.92,9.17-2.9,14.79-2.9h27.61v71.08h-7.42ZM1388.41,1431.15l17.46-24.98h7.69l-17.14,24.98h-8.01ZM1436.62,1405.47v-41.03l2.03,2.13h-21.93c-6.62,0-11.76,1.57-15.35,4.72-3.64,3.14-5.46,7.73-5.46,13.74s1.72,10.32,5.11,13.46c3.36,3.15,8.36,4.72,15.01,4.72h22.63l-2.03,2.24Z"/>
      <polygon class="st0" points="1494.62 1431.15 1494.62 1360.07 1502 1360.07 1502 1418.97 1547.51 1360.07 1554.29 1360.07 1554.29 1431.15 1546.88 1431.15 1546.88 1372.35 1501.41 1431.15 1494.62 1431.15"/>
      <polygon class="st0" points="1578.29 1431.15 1578.29 1360.07 1623.45 1360.07 1623.45 1366.58 1583.64 1366.58 1585.6 1364.64 1585.67 1431.15 1578.29 1431.15"/>
      <path class="st0" d="M1636.35,1431.14v-71.08h26.59c6.01,0,11.19.98,15.53,2.9,4.34,1.93,7.66,4.7,10.01,8.33,2.34,3.6,3.49,8.01,3.49,13.15s-1.15,9.3-3.49,12.94c-2.35,3.61-5.68,6.4-10.01,8.36-4.34,1.96-9.52,2.98-15.53,2.98h-22.43l3.33-3.57v25.98h-7.49ZM1643.84,1405.75l-3.33-3.64h22.21c7.11,0,12.52-1.54,16.2-4.62,3.7-3.07,5.53-7.45,5.53-13.05s-1.83-10.11-5.53-13.22c-3.68-3.11-9.09-4.66-16.2-4.66h-22.21l3.33-3.57v42.75Z"/>
      <path class="st0" d="M1693.31,1431.14l32.45-71.08h7.42l32.49,71.08h-7.91l-29.88-66.7h3.05l-29.84,66.7h-7.8ZM1706.07,1412.15l2.24-6.09h41.34l2.21,6.09h-45.79Z"/>
    </g>
    <g>
      <path class="st0" d="M973.43,671.59c-31.64,0-57.31,25.65-57.31,57.31s42.41,106.43,57.31,106.43,57.31-74.78,57.31-106.43-25.67-57.31-57.31-57.31M973.43,763.01c-17.38,0-31.46-14.08-31.46-31.46s14.08-31.46,31.46-31.46,31.46,14.08,31.46,31.46-14.08,31.46-31.46,31.46"/>
      <path class="st0" d="M1050.1,951.64l-4.09-14.05c21.08-6.16,31.66-16.36,32.34-31.2l14.62.68c-.68,14.82-8.67,34.57-42.87,44.56M1065.09,888.49c-11.14-5.03-28.67-7.92-53.59-8.8l.53-14.62c27.21.98,45.99,4.18,59.08,10.08l-6.01,13.34ZM868.63,882.95c-15.52-.02-28.02-.62-38.17-1.87l1.77-14.51c9.57,1.18,21.48,1.75,36.42,1.77,6.4,0,13.06-.11,19.89-.29l.37,14.64c-6.95.17-13.74.28-20.28.28M921.83,881.49l-.6-14.61,6.78-.29c16.84-.7,34.23-1.42,50.81-1.72l.25,14.62c-16.39.28-33.7,1.01-50.43,1.72l-6.8.28ZM795.72,868.99c-2.8-2.56-4.85-5.5-6.07-8.77-1.84-4.96-2.79-9.71-2.79-14.17,0-10.24,5-24.32,28.75-33.19l5.11,13.71c-19.22,7.19-19.22,16.45-19.22,19.49,0,2.71.62,5.75,1.84,9.05.42,1.08,1.15,2.11,2.23,3.1l-9.85,10.8ZM851.03,819.88l-1.78-14.53c12.95-1.58,28.27-2.37,45.52-2.37,4.29,0,8.6.05,12.89.12l-.31,14.64c-4.2-.09-8.4-.14-12.58-.14-16.67,0-31.38.76-43.74,2.28"/>
      <path class="st0" d="M979.07,958.64v-14.78c10.39,0,27.43-.2,35.75-.9l1.24,14.56c-8.72.76-26.18,1.12-36.99,1.12"/>
      <polygon class="st0" points="933.78 1042.48 921.09 994.86 871.82 995.53 960.42 942.96 933.78 1042.48"/>
      <path class="st0" d="M1440.27,951.98h-48.74c0-206.33-145.91-388.83-346.93-433.9l10.67-47.57c107.6,24.13,205.31,84.87,275.12,171.03,70.86,87.44,109.88,197.69,109.88,310.44"/>
      <path class="st0" d="M502.17,951.98h-48.74c0-112.07,38.6-221.81,108.69-308.97,69.02-85.86,165.81-146.81,272.52-171.64l11.04,47.49c-202.26,47.04-343.51,225.14-343.51,433.11"/>
      <path class="st0" d="M1280.65,951.98h-16.25c0-175.09-142.46-317.56-317.56-317.56s-317.55,142.47-317.55,317.56h-16.26c0-184.06,149.75-333.81,333.81-333.81s333.81,149.75,333.81,333.81"/>
      <polygon class="st0" points="946.84 286.38 875.67 626.3 1016.05 626.3 946.84 286.38"/>
      <polygon class="st0" points="1564.76 951.98 1264.87 951.98 1264.87 880.81 1564.76 951.98"/>
      <polygon class="st0" points="327.84 951.98 627.73 951.98 627.73 880.81 327.84 951.98"/>
      <polygon class="st0" points="508.44 532.71 585.77 657.22 634.67 607.19 508.44 532.71"/>
      <polygon class="st0" points="1383.36 532.71 1306.04 657.22 1257.14 607.19 1383.36 532.71"/>
      <rect class="st0" x="1177.14" y="663.46" width="55.99" height="16.25" transform="translate(-95.03 1133.06) rotate(-48.67)"/>
      <rect class="st0" x="1240.69" y="734.84" width="55.98" height="16.25" transform="translate(-201.43 760.54) rotate(-31.04)"/>
      <rect class="st0" x="1101.6" y="612.46" width="55.98" height="16.25" transform="translate(106.24 1404.08) rotate(-66.22)"/>
      <rect class="st0" x="671.99" y="643.59" width="16.25" height="55.99" transform="translate(-274.12 616.66) rotate(-41.34)"/>
      <rect class="st0" x="608.44" y="714.97" width="16.25" height="55.98" transform="translate(-338 887.74) rotate(-58.94)"/>
      <rect class="st0" x="572.76" y="793.9" width="16.24" height="55.99" transform="translate(-358.01 1184.39) rotate(-75.86)"/>
      <rect class="st0" x="1273.24" y="813.77" width="55.99" height="16.24" transform="translate(-161.27 342.52) rotate(-14.13)"/>
      <rect class="st0" x="747.53" y="592.59" width="16.25" height="55.98" transform="translate(-185.97 357) rotate(-23.76)"/>
      <polygon class="st0" points="922.39 269.4 922.39 212.52 929.05 212.52 966.67 259.24 963.17 259.24 963.17 212.52 971.3 212.52 971.3 269.4 964.64 269.4 927.02 222.68 930.5 222.68 930.5 269.4 922.39 269.4"/>
      <path class="st0" d="M1592.94,965.59h33.16v7.08h-41.28v-56.88h40.13v7.06h-32.02v42.74ZM1592.22,940.33h29.24v6.91h-29.24v-6.91Z"/>
      <polygon class="st0" points="254.2 972.67 235.18 915.79 243.56 915.79 261.03 968.28 256.8 968.28 274.91 915.79 282.39 915.79 300.11 968.28 296.04 968.28 313.76 915.79 321.47 915.79 302.47 972.67 293.93 972.67 277.36 924 279.56 924 262.89 972.67 254.2 972.67"/>
    </g>
  </g>
</svg>