<?xml version="1.0" encoding="UTF-8"?>
<svg id="Layer_1" xmlns="http://www.w3.org/2000/svg" version="1.1" xmlns:xlink="http://www.w3.org/1999/xlink" viewBox="0 0 300 300">
  <!-- Generator: Adobe Illustrator 29.8.1, SVG Export Plug-In . SVG Version: 2.1.1 Build 2)  -->
  <defs>
    <style>
      .st0 {
        fill: url(#linear-gradient1);
      }

      .st1 {
        filter: url(#outer-glow-1);
      }

      .st2 {
        clip-rule: evenodd;
        fill: none;
      }

      .st3 {
        fill: url(#linear-gradient);
      }

      .st4 {
        clip-path: url(#clippath);
      }
    </style>
    <linearGradient id="linear-gradient" x1="150.55" y1="300.4" x2="150.55" y2=".4" gradientUnits="userSpaceOnUse">
      <stop offset="0" stop-color="#fff33b"/>
      <stop offset=".02" stop-color="#fce13b"/>
      <stop offset=".08" stop-color="#f8c13b"/>
      <stop offset=".14" stop-color="#f5a53b"/>
      <stop offset=".2" stop-color="#f28f3b"/>
      <stop offset=".28" stop-color="#f07d3b"/>
      <stop offset=".37" stop-color="#ef713b"/>
      <stop offset=".5" stop-color="#ee6a3b"/>
      <stop offset=".83" stop-color="#ee693c"/>
      <stop offset="1" stop-color="#d93a35"/>
    </linearGradient>
    <filter id="outer-glow-1" x="24.56" y="48" width="221.74" height="224.16" filterUnits="userSpaceOnUse">
      <feOffset dx="0" dy="0"/>
      <feGaussianBlur result="blur" stdDeviation="10"/>
      <feFlood flood-color="#231f20" flood-opacity="1"/>
      <feComposite in2="blur" operator="in"/>
      <feComposite in="SourceGraphic"/>
    </filter>
    <clipPath id="clippath">
      <path class="st2" d="M158.02,127.9c.52.51.19,1.46-1,2.84-1.18,1.39-2.38,1.83-3.59,1.33-1.21-.5-2.71-.61-4.5-.33-1.8.28-3.21.85-4.22,1.72-1.02.87-1.65,1.78-1.9,2.72-.25.95-.19,1.85.16,2.7.35.85,1.01,1.66,1.96,2.42.95.76,3.66,1.71,8.14,2.86,4.47,1.15,7.36,2.44,8.66,3.88,1.3,1.44,2.13,2.68,2.49,3.7.36,1.02.45,2.22.3,3.6-.16,1.37-.57,2.84-1.23,4.39-.67,1.55-1.55,2.98-2.65,4.28-1.1,1.3-2.03,2.17-2.8,2.61-.77.44-1.09,2.16-.97,5.16.12,3-.89,4.73-3.03,5.18-2.14.45-3.38.43-3.73-.08-.35-.51-.66-1.75-.94-3.72-.28-1.97-1.79-2.94-4.54-2.9-2.74.03-5.11-.41-7.09-1.33-.99-.46-1.98-.92-2.97-1.38.46-.82.92-1.64,1.39-2.46.92-1.64,3.02-2.14,6.28-1.49,3.27.65,5.62.75,7.08.3,1.45-.45,2.94-1.45,4.47-3.01s2.36-3.29,2.51-5.17c.15-1.89.14-3.09-.04-3.6-.18-.51-.7-1.11-1.56-1.78-.87-.68-3.02-1.51-6.46-2.5-3.44-.99-5.59-1.73-6.46-2.24-.86-.5-1.77-1.39-2.73-2.67-.96-1.27-1.53-2.6-1.72-3.97-.19-1.37.05-2.92.72-4.64.67-1.72,1.93-3.28,3.8-4.67,1.87-1.39,2.63-2.69,2.27-3.88-.36-1.2-.45-2.05-.29-2.57.17-.52,1.15-1,2.94-1.45,1.8-.45,2.96.09,3.49,1.63.53,1.54,1.83,2.55,3.89,3.04,2.06.49,3.36.99,3.88,1.5ZM154.82,96.3c-.76.61-1.53,1.22-2.29,1.83.13.04.26.08.39.12.26.08.9-.22,1.92-.92,1.02-.7,1.66-1.35,1.91-1.95.13-.3.25-.6.38-.9-.76.61-1.53,1.22-2.29,1.83ZM170.19,102.42c-.77.1-1.59-.11-2.45-.61-.86-.51-1.81-.58-2.83-.22-1.02.35-2.7.33-5.02-.07-2.32-.4-4.25-.59-5.79-.57-1.54.02-2.44.16-2.7.42s.02,1.63.82,4.11c.8,2.48,1.77,4.27,2.89,5.37s2.25,1.86,3.37,2.28c1.12.42,2.11,1.05,2.98,1.89s1.22,1.44,1.05,1.79c-.17.34-1.11.27-2.83-.22-1.72-.49-3.4-1.55-5.05-3.15s-2.91-3.52-3.8-5.74c-.44-1.11-.88-2.22-1.32-3.33-.34.52-.67,1.04-1.01,1.56-.67,1.04-2.07,2.47-4.19,4.29-2.12,1.83-4.04,3.09-5.74,3.8-1.71.71-3.03.85-3.98.43-.47-.21-.95-.42-1.42-.63l.76-.78c.51-.52,1.32-.92,2.43-1.19,1.11-.27,2.56-.97,4.35-2.11,1.79-1.14,3.53-2.66,5.22-4.56,1.69-1.91,2.49-3.07,2.4-3.5-.09-.43-.56-.64-1.42-.63-.86.01-1.46.19-1.79.54s-1.2.36-2.57.03c-1.38-.33-3.13-.26-5.27.19-2.14.45-4.19.65-6.17.59-1.97-.06-3.13.08-3.47.43s-2.06,3.41-5.16,9.19c-3.1,5.78-7.44,12.73-13,20.86-5.56,8.12-9.76,15.38-12.6,21.75-2.84,6.38-4.36,11.58-4.57,15.61-.21,4.03-.09,7.29.37,9.77.46,2.48,1.56,5.34,3.32,8.58,1.75,3.24,3.93,6.04,6.53,8.41,2.6,2.37,5.45,4.31,8.56,5.81,3.1,1.51,7.02,2.79,11.75,3.85,4.73,1.06,10.48,1.68,17.25,1.85,6.78.18,13.03.1,18.77-.22,5.74-.32,10.11-.81,13.1-1.44,2.99-.64,6.24-1.7,9.74-3.2,3.5-1.5,7.07-3.51,10.73-6.04,3.66-2.53,6.37-4.79,8.15-6.78,1.78-1.99,3.13-3.81,4.05-5.45.92-1.64,1.71-3.75,2.37-6.33.65-2.58.93-4.94.82-7.08-.11-2.14-.61-4.84-1.51-8.08-.9-3.25-2.35-6.79-4.37-10.62-2.02-3.83-3.81-6.77-5.38-8.81-1.57-2.04-5.36-7.78-11.39-17.23-6.03-9.45-9.83-15.96-11.42-19.54-1.59-3.58-2.76-5.33-3.53-5.23ZM178.69,81.74c-2.66-.05-5.44.36-8.34,1.26-1.45.45-2.91.89-4.36,1.34.08-.43.16-.86.24-1.29.16-.86.07-1.46-.28-1.8s-2.37-.96-6.07-1.86c-3.7-.9-6.27-.7-7.71.61-1.44,1.3-3.06,2.27-4.85,2.89-1.79.62-2.78.85-2.95.68s-.05-.73.37-1.68c.42-.95.41-1.72-.03-2.31-.44-.59-1.94-1.05-4.52-1.36-2.58-.31-4.33-.25-5.27.19-.94.44-1.36,1.05-1.26,1.82.09.77.32,1.33.66,1.66l.52.51-.38.39c-.25.26-2.79,0-7.6-.81-4.81-.8-7.51-.98-8.11-.55-.6.44-.97,1-1.14,1.69-.16.69.63,2.74,2.39,6.14,1.75,3.41,3.63,6.09,5.62,8.04s3.42,3,4.28,3.16c.86.16,1.97.15,3.34-.04,1.37-.19,2.65-.63,3.84-1.33,1.19-.7,2.3-.97,3.33-.81,1.03.16,1.85.45,2.45.87.61.42,1.38.58,2.32.49.94-.1,1.63-.28,2.05-.54.43-.26.42-.86-.02-1.8-.44-.94-.49-1.67-.15-2.18.34-.52.76-.78,1.28-.79.51,0,1.12.5,1.82,1.52.35.51.7,1.02,1.05,1.53.85-.7,1.7-1.39,2.55-2.09,1.7-1.39,2.8-2.09,3.32-2.1.51,0,.95.16,1.29.5s.52.68.53,1.02c0,.34-.46.99-1.39,1.95l-1.4,1.43.39.38c.26.25,1.59.28,3.99.08,2.4-.2,4.8-.14,7.2.17,2.4.31,5.26-1.22,8.56-4.6s5.42-5.89,6.34-7.53c.92-1.64,1.17-2.84.73-3.61-.44-.77-1.99-1.18-4.64-1.23Z"/>
    </clipPath>
    <linearGradient id="linear-gradient1" x1="84.09" y1="154.63" x2="218.93" y2="154.63" gradientTransform="translate(290.06 9.38) rotate(90)" gradientUnits="userSpaceOnUse">
      <stop offset="0" stop-color="#ffd49d"/>
      <stop offset="1" stop-color="#b17438"/>
    </linearGradient>
  </defs>
  <rect class="st3" x=".55" y=".4" width="300" height="300" rx="36" ry="36"/>
  <path d="M168.93,261.02c13.78-13.96,21.22-21.36,22.33-22.19,1.11-.83,2.31-1.53,3.61-2.08,1.29-.55,2.91-.88,4.85-.97,1.94-.09,3.65.37,5.13,1.39,1.48,1.02,2.36,2.87,2.63,5.55.28,2.68.6,4.58.97,5.69.37,1.11,1.11,2.63,2.22,4.58,1.11,1.94,2.31,3.61,3.61,4.99,1.29,1.39,2.45,2.45,3.47,3.19,1.02.74,2.13,1.43,3.33,2.08,1.2.65,2.68,1.25,4.44,1.8,1.76.56,3.37.92,4.85,1.11,1.48.19,3.14.23,4.99.14,1.85-.09,4.16-.6,6.93-1.53,2.77-.92,4.76-1.76,5.96-2.5,1.2-.74,2.54-1.8,4.02-3.19,1.48-1.39,2.91-3.24,4.3-5.55,1.39-2.31,2.4-4.76,3.05-7.35.65-2.59.92-5.13.83-7.63-.09-2.5-.51-4.9-1.25-7.21-.74-2.31-1.62-4.3-2.63-5.96-1.02-1.66-2.22-3.19-3.61-4.58-1.39-1.39-2.87-2.59-4.44-3.61-1.57-1.02-3.37-1.9-5.41-2.64-2.03-.74-4.21-1.25-6.52-1.53-2.31-.28-4.11-.97-5.41-2.08-1.29-1.11-2.08-1.99-2.36-2.63-.28-.65-.42-1.48-.42-2.5,0-1.02.14-1.9.42-2.63.28-.74,8.55-9.15,24.82-25.24,16.27-16.09,24.41-24.27,24.41-24.55,0-.28-7.67-8.04-23.02-23.3-15.35-15.25-23.48-23.58-24.41-24.96-.92-1.39-1.39-2.77-1.39-4.16s.37-2.59,1.11-3.61c.74-1.02,1.94-1.71,3.61-2.08,1.66-.37,3.61-1.02,5.82-1.94,2.22-.92,4.25-2.03,6.1-3.33,1.85-1.29,3.24-2.4,4.16-3.33.92-.93,2.03-2.27,3.33-4.02,1.29-1.76,2.54-4.21,3.74-7.35,1.2-3.14,1.9-5.32,2.08-6.52.18-1.2.23-3.1.14-5.69-.09-2.59-.65-5.32-1.66-8.18-1.02-2.87-1.9-4.85-2.63-5.96-.74-1.11-1.71-2.27-2.91-3.47-1.2-1.2-3.05-2.5-5.55-3.88-2.5-1.39-4.9-2.31-7.21-2.77-2.31-.46-4.53-.65-6.66-.55-2.13.09-4.11.37-5.96.83-1.85.46-3.74,1.16-5.69,2.08-1.94.92-4.07,2.36-6.38,4.3-2.31,1.94-4.16,3.88-5.55,5.82-1.39,1.94-2.54,3.98-3.47,6.1-.92,2.13-1.62,4.35-2.08,6.66-.46,2.31-1.25,3.88-2.36,4.72-1.11.83-2.31,1.34-3.61,1.53-1.29.19-2.17.19-2.64,0-.46-.18-1.43-.97-2.91-2.36-1.48-1.39-9.2-9.15-23.16-23.3-13.96-14.15-21.22-21.27-21.77-21.36-.55-.09-8.6,7.63-24.13,23.16-15.53,15.53-23.3,23.53-23.3,23.99,0,.46.19.88.55,1.25.37.37.92.55,1.66.55s2.27.32,4.58.97c2.31.65,4.72,1.66,7.21,3.05,2.5,1.39,4.81,3.14,6.93,5.27,2.13,2.13,3.88,4.39,5.27,6.8,1.39,2.4,2.4,4.85,3.05,7.35.65,2.5.97,5.36.97,8.6s-.37,6.19-1.11,8.88c-.74,2.68-1.48,4.71-2.22,6.1-.74,1.39-1.76,2.91-3.05,4.58-1.29,1.66-3.24,3.51-5.82,5.55-2.59,2.03-5.36,3.61-8.32,4.72-2.96,1.11-6.2,1.76-9.71,1.94-3.51.19-6.75-.09-9.71-.83-2.96-.74-5.64-1.8-8.04-3.19-2.4-1.39-4.39-2.82-5.96-4.3-1.57-1.48-2.82-2.82-3.74-4.02-.92-1.2-2.08-3.42-3.47-6.66s-2.17-6.06-2.36-8.46c-.19-2.4-.46-3.65-.83-3.74-.37-.09-8.55,7.86-24.55,23.85-15.99,15.99-23.95,24.22-23.85,24.69.09.46,6.75,7.21,19.97,20.25,13.22,13.04,20.71,20.53,22.47,22.47,1.76,1.94,2.96,3.47,3.61,4.58.65,1.11.97,2.13.97,3.05s-.46,1.94-1.39,3.05c-.92,1.11-2.03,1.71-3.33,1.8-1.29.09-2.77.37-4.44.83-1.66.46-3.33,1.11-4.99,1.94-1.66.83-3.24,1.8-4.72,2.91-1.48,1.11-2.96,2.5-4.44,4.16-1.48,1.66-2.73,3.37-3.74,5.13-1.02,1.76-1.9,3.79-2.63,6.1-.74,2.31-1.16,5.04-1.25,8.18-.09,3.14.28,6.15,1.11,9.02.83,2.87,2.13,5.5,3.88,7.9,1.76,2.4,3.51,4.25,5.27,5.55,1.76,1.29,4.02,2.4,6.8,3.33,2.77.92,5.36,1.43,7.77,1.53,2.4.09,4.85-.14,7.35-.69,2.5-.55,4.81-1.39,6.93-2.5,2.13-1.11,4.25-2.68,6.38-4.71,2.13-2.03,3.93-4.35,5.41-6.93,1.48-2.59,2.5-5.04,3.05-7.35.55-2.31,1.11-4.11,1.66-5.41.56-1.29,1.43-2.22,2.63-2.77,1.2-.55,2.36-.83,3.47-.83s2.91.92,5.41,2.77c2.5,1.85,10.72,9.8,24.69,23.85,13.96,14.05,21.31,21.13,22.05,21.22.74.09,8-6.84,21.77-20.8Z"/>
  <g class="st1">
    <g class="st4">
      <rect class="st0" x="45.96" y="93.33" width="178.95" height="135.18" transform="translate(-74.32 145.38) rotate(-45.68)"/>
    </g>
  </g>
</svg>